<svg xmlns="http://www.w3.org/2000/svg" xmlns:xlink="http://www.w3.org/1999/xlink" width="500" zoomAndPan="magnify" viewBox="0 0 375 374.999991" height="500" preserveAspectRatio="xMidYMid meet" version="1.0"><defs><g/><clipPath id="59a2f937ed"><path d="M 79 82 L 296 82 L 296 300 L 79 300 Z M 79 82 " clip-rule="nonzero"/></clipPath><clipPath id="d4bf0ac721"><path d="M 233.078125 44.78125 L 332.683594 240.664062 L 142.152344 337.546875 L 42.546875 141.667969 Z M 233.078125 44.78125 " clip-rule="nonzero"/></clipPath><clipPath id="ef7f5115ec"><path d="M 233.078125 44.78125 L 332.683594 240.664062 L 142.152344 337.546875 L 42.546875 141.667969 Z M 233.078125 44.78125 " clip-rule="nonzero"/></clipPath><clipPath id="27ef2202ff"><path d="M 267.851562 120.949219 C 227.890625 75.246094 159.375 69.597656 115.125 108.347656 C 105.566406 116.71875 97.8125 126.675781 91.890625 137.847656 L 92.171875 137.996094 L 91.890625 137.847656 C 81.742188 156.980469 77.746094 178.714844 80.324219 200.699219 C 82.960938 223.171875 92.332031 244.175781 107.429688 261.441406 C 147.359375 307.097656 215.804688 312.746094 260.007812 274.03125 C 304.257812 235.277344 307.816406 166.648438 267.851562 120.949219 Z M 103.613281 240.929688 C 105.304688 242.863281 106.78125 244.375 107.894531 245.453125 C 115.304688 252.625 125.546875 253.179688 136.390625 253.765625 C 148.914062 254.445312 163.109375 255.214844 175.320312 266.585938 C 185.660156 276.214844 195.8125 284.644531 207.289062 288.484375 C 195.652344 285.011719 185.414062 277.109375 175.339844 268.332031 C 163.191406 257.753906 149.308594 256.535156 137.058594 255.457031 C 126.066406 254.492188 115.683594 253.582031 108.179688 246.195312 C 101.488281 239.605469 95.195312 231.058594 90.386719 221.050781 C 94.726562 229.8125 99.730469 236.492188 103.613281 240.929688 Z M 98.871094 234.070312 C 100.386719 236.109375 101.855469 237.90625 103.195312 239.4375 C 105.078125 241.589844 106.71875 243.242188 107.921875 244.386719 C 115.152344 251.246094 125.203125 251.453125 135.84375 251.667969 C 148.691406 251.929688 163.253906 252.222656 175.597656 264.492188 C 185.730469 274.566406 195.132812 283.300781 206.339844 287.660156 C 195.363281 283.695312 185.578125 275.539062 175.617188 266.261719 C 163.289062 254.777344 149.007812 254.007812 136.410156 253.324219 C 125.652344 252.742188 115.492188 252.195312 108.199219 245.136719 C 106.960938 243.9375 103.199219 240.125 98.871094 234.070312 Z M 175.058594 270.40625 C 163.136719 260.71875 149.679688 259.085938 137.808594 257.648438 C 126.542969 256.285156 115.902344 254.992188 108.164062 247.25 C 102.136719 241.226562 96.449219 233.59375 91.863281 224.757812 C 95.976562 232.46875 100.488281 238.386719 103.996094 242.394531 C 105.511719 244.128906 106.839844 245.507812 107.863281 246.515625 C 115.480469 254.015625 125.945312 254.933594 137.019531 255.910156 C 149.199219 256.980469 163.003906 258.191406 175.042969 268.671875 C 185.390625 277.6875 195.914062 285.789062 207.933594 289.160156 C 195.730469 286.15625 185.113281 278.570312 175.058594 270.402344 Z M 208.328125 289.753906 C 195.636719 287.195312 184.699219 279.972656 174.777344 272.476562 C 163.132812 263.679688 150.703125 261.765625 138.679688 259.910156 C 127.097656 258.128906 116.15625 256.441406 108.140625 248.3125 C 102.128906 242.210938 96.460938 234.519531 91.878906 225.644531 C 96.128906 233.664062 100.792969 239.78125 104.347656 243.84375 C 105.695312 245.390625 106.890625 246.640625 107.835938 247.585938 C 115.691406 255.441406 126.410156 256.742188 137.753906 258.117188 C 150.140625 259.617188 162.949219 261.171875 174.765625 270.769531 C 185.015625 279.097656 195.84375 286.820312 208.332031 289.757812 Z M 104.472656 245.0625 C 105.554688 246.300781 106.667969 247.496094 107.796875 248.648438 C 115.925781 256.890625 126.945312 258.589844 138.609375 260.386719 C 150.570312 262.230469 162.945312 264.136719 174.484375 272.859375 C 183.765625 279.875 194.808594 287.234375 207.355469 290.066406 C 195.421875 287.800781 184.640625 281.660156 174.492188 274.550781 C 163.199219 266.636719 151.257812 264.414062 139.710938 262.261719 C 127.746094 260.035156 116.445312 257.933594 108.121094 249.371094 C 101.53125 242.601562 95.339844 233.941406 90.554688 223.894531 C 94.320312 231.640625 99.054688 238.871094 104.472656 245.066406 Z M 104.769531 246.457031 C 105.746094 247.574219 106.746094 248.664062 107.769531 249.710938 C 116.207031 258.386719 127.582031 260.503906 139.625 262.746094 C 151.121094 264.886719 163.003906 267.101562 174.210938 274.953125 C 183.96875 281.789062 197.074219 289.828125 211.957031 291.339844 C 212.632812 291.410156 213.3125 291.449219 213.988281 291.488281 C 199.3125 290.984375 186.335938 284.464844 174.214844 276.617188 C 163.347656 269.582031 151.960938 267.113281 140.949219 264.722656 C 128.53125 262.023438 116.800781 259.480469 108.105469 250.425781 C 101.671875 243.726562 95.617188 235.226562 90.871094 225.402344 C 94.652344 233.097656 99.371094 240.28125 104.773438 246.457031 Z M 105.984375 253.226562 C 106.523438 253.839844 107.066406 254.441406 107.613281 255.042969 C 118.855469 267.257812 133.753906 271.992188 149.527344 277 C 157.1875 279.429688 165.113281 281.945312 172.84375 285.417969 C 188.453125 292.421875 203.253906 295.097656 217.441406 293.433594 C 203.289062 295.445312 188.472656 293.289062 172.785156 286.980469 C 166.503906 284.453125 160.101562 282.335938 153.90625 280.292969 C 136.605469 274.578125 120.265625 269.179688 108.003906 255.726562 C 105.210938 252.664062 102.554688 249.316406 100.0625 245.746094 C 101.925781 248.34375 103.898438 250.84375 105.980469 253.230469 Z M 99.550781 244.003906 C 101.488281 246.738281 103.550781 249.359375 105.734375 251.855469 C 106.359375 252.574219 107 253.28125 107.644531 253.976562 C 118.050781 265.179688 131.855469 269.285156 146.472656 273.644531 C 155.242188 276.253906 164.3125 278.953125 173.117188 283.324219 C 186.332031 289.886719 198.789062 293.21875 210.792969 293.320312 C 198.714844 293.59375 186.183594 290.789062 173.074219 284.910156 C 165.308594 281.425781 157.371094 278.902344 149.695312 276.46875 C 133.996094 271.484375 119.167969 266.777344 108.027344 254.667969 C 105.03125 251.410156 102.191406 247.84375 99.550781 244.007812 Z M 104.929688 247.714844 C 105.847656 248.761719 106.78125 249.785156 107.738281 250.78125 C 116.539062 259.945312 128.34375 262.507812 140.839844 265.21875 C 151.808594 267.601562 163.148438 270.0625 173.9375 277.046875 C 188.527344 286.492188 200.394531 291.058594 212.402344 291.839844 C 198.007812 291.332031 185.28125 285.457031 173.929688 278.691406 C 163.589844 272.53125 152.839844 269.882812 142.445312 267.320312 C 129.46875 264.125 117.21875 261.105469 108.085938 251.488281 C 103.78125 246.953125 99.652344 241.613281 95.96875 235.625 C 98.660156 239.921875 101.660156 243.976562 104.929688 247.71875 Z M 105.207031 249.105469 C 106.023438 250.035156 106.859375 250.953125 107.707031 251.84375 C 116.941406 261.574219 129.269531 264.609375 142.316406 267.828125 C 152.675781 270.378906 163.386719 273.019531 173.660156 279.140625 C 187.835938 287.582031 200.058594 291.769531 212.03125 292.296875 C 197.351562 292.109375 184.484375 286.675781 173.644531 280.761719 C 163.964844 275.480469 153.960938 272.746094 144.289062 270.097656 C 130.625 266.359375 117.71875 262.828125 108.066406 252.546875 C 104.386719 248.632812 100.9375 244.242188 97.8125 239.449219 C 100.09375 242.839844 102.558594 246.074219 105.207031 249.105469 Z M 105.476562 250.480469 C 106.195312 251.304688 106.929688 252.113281 107.675781 252.910156 C 117.429688 263.300781 130.40625 266.851562 144.148438 270.609375 C 153.792969 273.25 163.761719 275.980469 173.390625 281.230469 C 183.441406 286.710938 195.21875 291.785156 208.558594 292.703125 C 197.324219 292.234375 185.671875 288.945312 173.359375 282.832031 C 164.511719 278.441406 155.421875 275.734375 146.632812 273.113281 C 132.089844 268.785156 118.355469 264.691406 108.050781 253.601562 C 104.832031 250.140625 101.800781 246.308594 99 242.179688 C 101.023438 245.074219 103.179688 247.855469 105.480469 250.480469 Z M 106.234375 254.59375 C 106.679688 255.101562 107.128906 255.605469 107.585938 256.105469 C 119.949219 269.671875 136.355469 275.09375 153.726562 280.832031 C 159.914062 282.871094 166.308594 284.984375 172.574219 287.507812 C 185.964844 292.890625 198.730469 295.265625 210.992188 294.628906 C 198.648438 295.640625 185.796875 293.789062 172.503906 289.042969 C 168.371094 287.570312 164.167969 286.175781 160.105469 284.824219 C 140.4375 278.300781 121.867188 272.136719 107.992188 256.777344 C 104.21875 252.597656 100.835938 248.15625 97.832031 243.519531 C 100.394531 247.40625 103.199219 251.113281 106.238281 254.589844 Z M 106.476562 255.960938 C 106.832031 256.367188 107.195312 256.773438 107.554688 257.171875 C 121.535156 272.648438 140.179688 278.835938 159.917969 285.386719 C 163.980469 286.734375 168.179688 288.128906 172.304688 289.601562 C 185.710938 294.382812 198.664062 296.246094 211.105469 295.214844 C 198.578125 296.621094 185.53125 295.28125 172.214844 291.117188 L 170.21875 290.5 C 147.707031 283.472656 124.425781 276.207031 107.972656 257.839844 C 107.695312 257.527344 107.421875 257.21875 107.144531 256.902344 C 104.222656 253.5625 101.550781 250.0625 99.101562 246.445312 C 101.386719 249.761719 103.84375 252.953125 106.480469 255.964844 Z M 106.675781 257.28125 C 106.957031 257.601562 107.238281 257.925781 107.523438 258.242188 C 124.085938 276.738281 147.445312 284.023438 170.039062 291.074219 L 172.035156 291.695312 C 185.433594 295.882812 198.554688 297.234375 211.160156 295.820312 C 198.464844 297.613281 185.242188 296.777344 171.921875 293.191406 C 150.144531 287.335938 125.519531 278.679688 107.949219 258.898438 C 107.761719 258.6875 107.585938 258.484375 107.398438 258.273438 C 105.417969 256.007812 103.550781 253.667969 101.785156 251.269531 C 103.339844 253.324219 104.96875 255.332031 106.671875 257.28125 Z M 107.917969 261.015625 C 105.953125 258.769531 104.09375 256.453125 102.335938 254.085938 C 103.90625 256.152344 105.542969 258.175781 107.265625 260.140625 L 107.46875 260.371094 C 122.855469 277.792969 144.398438 289.738281 171.503906 295.878906 C 184.285156 298.773438 196.925781 299.296875 209.078125 297.5625 C 173.09375 303.738281 134.265625 291.140625 107.921875 261.015625 Z M 171.636719 295.265625 C 144.664062 289.160156 123.230469 277.277344 107.933594 259.957031 L 107.742188 259.738281 C 105.828125 257.546875 104.015625 255.292969 102.292969 252.984375 C 103.773438 254.921875 105.3125 256.820312 106.929688 258.664062 C 107.117188 258.878906 107.304688 259.089844 107.496094 259.304688 C 125.171875 279.207031 149.902344 287.90625 171.765625 293.789062 C 187.308594 297.96875 202.71875 298.441406 217.320312 295.367188 C 202.742188 298.785156 187.292969 298.8125 171.636719 295.265625 Z M 258.59375 274.386719 C 258.421875 274.535156 258.246094 274.683594 258.070312 274.828125 C 257.875 274.988281 257.683594 275.148438 257.488281 275.308594 C 257.324219 275.441406 257.164062 275.570312 257 275.699219 C 256.832031 275.832031 256.660156 275.972656 256.496094 276.101562 C 256.355469 276.210938 256.214844 276.316406 256.078125 276.417969 C 255.886719 276.566406 255.695312 276.707031 255.503906 276.851562 C 255.476562 276.875 255.445312 276.898438 255.417969 276.917969 C 255.027344 277.207031 254.636719 277.492188 254.246094 277.773438 C 254.226562 277.785156 254.207031 277.796875 254.191406 277.8125 C 253.597656 278.226562 253.007812 278.632812 252.417969 279.035156 C 252.308594 279.105469 252.199219 279.183594 252.089844 279.257812 C 251.773438 279.464844 251.453125 279.691406 251.132812 279.894531 C 251.046875 279.949219 250.964844 279.996094 250.882812 280.054688 C 250.03125 280.597656 249.1875 281.105469 248.347656 281.605469 C 248.058594 281.773438 247.769531 281.945312 247.480469 282.109375 C 246.863281 282.464844 246.253906 282.800781 245.644531 283.132812 C 245.171875 283.382812 244.707031 283.628906 244.238281 283.871094 C 244.179688 283.898438 244.121094 283.929688 244.0625 283.960938 C 243.925781 284.03125 243.792969 284.09375 243.65625 284.164062 C 211.792969 299.867188 192.84375 281.03125 175.898438 264.1875 C 163.4375 251.796875 148.78125 251.5 135.851562 251.238281 C 125.296875 251.027344 115.328125 250.824219 108.21875 244.074219 C 104.71875 240.753906 81.039062 216.886719 81.417969 180.316406 C 81.503906 175.648438 81.953125 170.855469 82.835938 165.964844 C 82.871094 165.769531 82.90625 165.578125 82.945312 165.382812 C 83.09375 164.570312 83.273438 163.75 83.445312 162.933594 C 83.617188 162.160156 83.785156 161.386719 83.976562 160.609375 C 84.054688 160.285156 84.140625 159.957031 84.222656 159.628906 C 84.519531 158.460938 84.832031 157.292969 85.175781 156.125 C 85.175781 156.125 85.175781 156.125 85.175781 156.117188 C 85.554688 154.832031 85.96875 153.542969 86.40625 152.253906 C 86.457031 152.109375 86.503906 151.960938 86.558594 151.8125 C 86.917969 150.773438 87.300781 149.734375 87.699219 148.695312 C 87.878906 148.238281 88.054688 147.777344 88.238281 147.320312 C 88.421875 146.855469 88.621094 146.386719 88.820312 145.921875 C 88.902344 145.722656 88.984375 145.523438 89.066406 145.324219 C 89.105469 145.238281 89.140625 145.152344 89.175781 145.066406 C 89.441406 144.449219 89.707031 143.832031 89.984375 143.21875 C 90.019531 143.144531 90.050781 143.070312 90.082031 142.992188 C 90.101562 142.949219 90.125 142.90625 90.144531 142.863281 C 90.230469 142.683594 90.316406 142.5 90.402344 142.320312 C 90.613281 141.863281 90.835938 141.40625 91.058594 140.949219 C 91.105469 140.847656 91.15625 140.746094 91.203125 140.648438 C 91.300781 140.453125 91.394531 140.261719 91.492188 140.066406 C 91.566406 139.917969 91.640625 139.769531 91.714844 139.621094 C 91.964844 139.128906 92.203125 138.636719 92.457031 138.148438 C 98.332031 127.070312 106.210938 117.292969 115.6875 108.992188 C 159.585938 70.550781 227.554688 76.164062 267.210938 121.511719 C 306.863281 166.855469 303.484375 235.105469 259.589844 273.546875 C 259.261719 273.832031 258.925781 274.109375 258.597656 274.394531 Z M 258.59375 274.386719 " clip-rule="nonzero"/></clipPath></defs><rect x="-37.5" width="450" fill="#ffffff" y="-37.499999" height="449.999989" fill-opacity="1"/><rect x="-37.5" width="450" fill="#000000" y="-37.499999" height="449.999989" fill-opacity="1"/><g clip-path="url(#59a2f937ed)"><g clip-path="url(#d4bf0ac721)"><g clip-path="url(#ef7f5115ec)"><g clip-path="url(#27ef2202ff)"><path fill="#ffffff" d="M 260.550781 -23.359375 L -20.492188 119.550781 L 125.011719 405.703125 L 406.058594 262.792969 Z M 260.550781 -23.359375 " fill-opacity="1" fill-rule="nonzero"/></g></g></g></g><g fill="#f3eeea" fill-opacity="1"><g transform="translate(159.524636, 108.154931)"><g><path d="M 4.722656 -4.800781 L 4.300781 -6.503906 L 1.367188 -5.777344 L 0.945312 -7.472656 L 4.007812 -8.226562 L 3.585938 -9.933594 L -1.355469 -8.710938 L 0.753906 -0.1875 L 2.632812 -0.652344 L 1.785156 -4.074219 Z M 4.722656 -4.800781 "/></g></g></g><g fill="#f3eeea" fill-opacity="1"><g transform="translate(175.313184, 105.109426)"><g><path d="M 2.507812 -3.304688 L 2.519531 -3.304688 L 4.808594 -0.304688 L 7.257812 -0.460938 L 4.539062 -3.523438 C 5.632812 -3.863281 6.457031 -4.898438 6.363281 -6.382812 C 6.257812 -8.046875 4.921875 -9.113281 3.503906 -9.023438 L 2.152344 -8.9375 L 1.675781 -8.90625 L 0.21875 -8.8125 L 0.773438 -0.0507812 L 2.707031 -0.171875 Z M 3.28125 -7.480469 C 3.847656 -7.515625 4.46875 -7.066406 4.519531 -6.265625 C 4.574219 -5.425781 4.011719 -4.925781 3.445312 -4.890625 L 2.414062 -4.824219 L 2.25 -7.414062 Z M 3.28125 -7.480469 "/></g></g></g><g fill="#f3eeea" fill-opacity="1"><g transform="translate(191.950821, 104.883486)"><g><path d="M 5.9375 -2.621094 L 3.734375 -2.902344 L 5.238281 -5.863281 Z M 8.761719 1.128906 L 6.351562 -8.035156 L 4.722656 -8.246094 L 0.0625 0.0078125 L 2.125 0.273438 L 2.980469 -1.398438 L 6.296875 -0.972656 L 6.699219 0.863281 Z M 8.761719 1.128906 "/></g></g></g><g fill="#f3eeea" fill-opacity="1"><g transform="translate(210.036581, 108.189933)"><g><path d="M 7.265625 2.464844 L 10.085938 -5.855469 L 8.25 -6.476562 L 6.492188 -1.289062 L 5.390625 -7.445312 L 3.554688 -8.070312 L 0.734375 0.25 L 2.570312 0.871094 L 4.328125 -4.316406 L 5.429688 1.839844 Z M 7.265625 2.464844 "/></g></g></g><g fill="#f3eeea" fill-opacity="1"><g transform="translate(226.712651, 114.841274)"><g><path d="M 4.304688 -2.058594 L 4.761719 2.730469 L 7.027344 4.027344 L 6.171875 -1.523438 L 11.28125 -3.65625 L 9.128906 -4.890625 L 4.769531 -2.863281 L 6.722656 -6.269531 L 5.039062 -7.234375 L 0.671875 0.386719 L 2.351562 1.347656 Z M 4.304688 -2.058594 "/></g></g></g><g fill="#f3eeea" fill-opacity="1"><g transform="translate(241.445985, 124.436943)"><g/></g></g><g fill="#f3eeea" fill-opacity="1"><g transform="translate(250.997233, 133.046033)"><g><path d="M 3.109375 0.855469 L 7.035156 -2.5625 L 7.417969 -2.121094 C 8.398438 -0.992188 8.203125 0.515625 7.101562 1.472656 C 6 2.429688 4.464844 2.414062 3.488281 1.292969 Z M 7.132812 -5.179688 L 0.507812 0.585938 L 2.222656 2.550781 C 3.859375 4.433594 6.53125 4.589844 8.398438 2.964844 C 10.269531 1.335938 10.476562 -1.34375 8.847656 -3.214844 Z M 7.132812 -5.179688 "/></g></g></g><g fill="#f3eeea" fill-opacity="1"><g transform="translate(261.903381, 147.11865)"><g><path d="M 1.410156 2.316406 L 8.910156 -2.253906 L 7.902344 -3.90625 L 0.402344 0.660156 Z M 1.410156 2.316406 "/></g></g></g><g fill="#f3eeea" fill-opacity="1"><g transform="translate(268.181867, 158.652823)"><g><path d="M 8.203125 1.546875 L 9.140625 3.871094 L 10.769531 3.210938 L 8.167969 -3.230469 L 6.539062 -2.574219 L 7.476562 -0.25 L 0.964844 2.382812 L 1.6875 4.179688 Z M 8.203125 1.546875 "/></g></g></g><g fill="#f3eeea" fill-opacity="1"><g transform="translate(273.602163, 174.375896)"><g><path d="M 3.089844 6.382812 L 2.402344 2.992188 L 10.019531 5.183594 L 8.710938 -1.246094 L 6.988281 -0.894531 L 7.667969 2.445312 L 0.0507812 0.253906 L 1.371094 6.734375 Z M 3.089844 6.382812 "/></g></g></g><g fill="#f3eeea" fill-opacity="1"><g transform="translate(159.891822, 198.852217)"><g><path d="M 11.574219 -10.261719 L 11.574219 -21.179688 C 14.339844 -25.039062 18.195312 -23.070312 21.761719 -21.90625 C 28.167969 -19.722656 32.535156 -21.324219 35.007812 -28.53125 L 34.425781 -28.820312 C 31.660156 -24.601562 27.65625 -26.636719 24.089844 -27.875 C 18.269531 -29.839844 14.121094 -28.75 11.574219 -23.21875 L 11.574219 -48.472656 L 24.820312 -48.472656 C 30.714844 -48.472656 37.628906 -44.398438 39.886719 -38.792969 L 40.539062 -38.792969 L 37.484375 -49.785156 L 0 -49.785156 L 0 -49.128906 C 3.128906 -49.273438 4.65625 -47.164062 4.65625 -39.449219 L 4.65625 -10.261719 C 4.65625 -2.546875 3.128906 -0.507812 0 -0.65625 L 0 0 L 16.230469 0 L 16.230469 -0.65625 C 13.101562 -0.507812 11.574219 -2.546875 11.574219 -10.261719 Z M 11.574219 -10.261719 "/></g></g></g><g fill="#f3eeea" fill-opacity="1"><g transform="translate(174.978317, 229.206328)"><g><path d="M 0 0 L 18.921875 0 C 30.789062 0 42.796875 -3.859375 42.796875 -25.183594 C 42.796875 -46.582031 30.640625 -49.785156 18.921875 -49.785156 L 0 -49.785156 L 0 -49.128906 C 3.128906 -49.273438 4.65625 -47.164062 4.65625 -39.449219 L 4.65625 -10.261719 C 4.65625 -2.546875 3.128906 -0.507812 0 -0.65625 Z M 11.574219 -48.472656 L 20.960938 -48.472656 C 30.789062 -48.472656 35.882812 -38.9375 35.882812 -25.183594 C 35.882812 -11.425781 31.003906 -1.308594 20.960938 -1.308594 L 11.574219 -1.308594 Z M 11.574219 -48.472656 "/></g></g></g><path stroke-linecap="butt" transform="matrix(0.258143, 0.698191, -0.703458, 0.26009, 188.552541, 170.192202)" fill="none" stroke-linejoin="miter" d="M -0.000971976 1.501435 L 29.227286 1.498864 " stroke="#000000" stroke-width="3" stroke-opacity="1" stroke-miterlimit="4"/></svg>